<svg width="258" height="439" viewBox="0 0 258 439" fill="none" xmlns="http://www.w3.org/2000/svg">
<path fill-rule="evenodd" clip-rule="evenodd" d="M63.784 168.944L71.704 105.584H155.368L159.112 75.776H37.72L12.3675 281.729L55.2385 238.858L60.184 198.752H95.3447L125.153 168.944H63.784Z" fill="#D0D0D3"/>
<path fill-rule="evenodd" clip-rule="evenodd" d="M101.088 377L117.634 241.061L160.154 198.541L150.912 274.184H176.976C184.368 274.184 190.752 273.08 196.128 270.872C201.504 268.664 205.92 265.592 209.376 261.656C212.928 257.624 215.52 252.872 217.152 247.4C218.88 241.928 219.744 235.88 219.744 229.256C219.744 224.552 219.072 220.232 217.728 216.296C216.384 212.36 214.32 209.048 211.536 206.36C208.752 203.576 205.248 201.416 201.024 199.88C196.896 198.344 191.952 197.576 186.192 197.576H161.119L189.919 168.776C201.672 168.786 211.758 170.226 220.176 173.096C228.72 175.88 235.728 179.816 241.2 184.904C246.672 189.992 250.704 196.04 253.296 203.048C255.984 209.96 257.328 217.592 257.328 225.944C257.328 237.08 255.552 247.4 252 256.904C248.544 266.312 243.312 274.472 236.304 281.384C229.296 288.2 220.512 293.576 209.952 297.512C199.488 301.352 187.248 303.272 173.232 303.272H147.312L138.24 377H101.088Z" fill="#D0D0D3"/>
</svg>
